<svg
			xmlns="http://www.w3.org/2000/svg"
			version="1.1"
			viewBox="0 0 20 24"
			height="24px"
			width="20px"
		>
			<defs></defs>
			<g fill-rule="evenodd" fill="none" stroke-width="1" stroke="none">
				<g>
					<g id="fiken-logo">
						<path
							fill="#c9c2f5"
							id="one"
							d="M8.47429153,11 C7.38390774,11 6.5,10.0757637 6.5,8.93582574 L6.5,8.1339251 C6.5,3.64886604 9.98997924,0 14.2797402,0 C15.8383255,0 17.3429132,0.480704092 18.6305927,1.39019379 C19.5341131,2.02831124 19.7718861,3.31143952 19.1615549,4.25609418 C18.5512237,5.20074883 17.3238847,5.44934676 16.4204477,4.81114205 C15.7879166,4.36446856 15.0476408,4.12834852 14.2797402,4.12834852 C12.1672416,4.12834852 10.4485831,5.92525166 10.4485831,8.1339251 L10.4485831,8.93582574 C10.4485831,10.0757637 9.56467532,11 8.47429153,11"
						></path>
						<path
							fill="#110751"
							id="two"
							d="M15.0356253,13.5355423 L10.4644577,13.5355423 L10.4644577,8.96445773 C10.4644577,7.87950507 9.58495267,7 8.5,7 C7.41504733,7 6.53554227,7.87950507 6.53554227,8.96445773 L6.53554227,13.5355423 L1.96445773,13.5355423 C0.879505066,13.5355423 0,14.4150473 0,15.5 C0,16.5848696 0.879505066,17.4643747 1.96445773,17.4643747 L6.53554227,17.4643747 L6.53554227,22.0355423 C6.53554227,23.1204119 7.41504733,24 8.5,24 C9.58495267,24 10.4644577,23.1204119 10.4644577,22.0355423 L10.4644577,17.4643747 L15.0356253,17.4643747 C16.1204949,17.4643747 17,16.5848696 17,15.5 C17,14.4150473 16.1204949,13.5355423 15.0356253,13.5355423"
						></path>
					</g>
				</g>
			</g>
		</svg>